<svg viewBox="0 0 400 400" xmlns="http://www.w3.org/2000/svg" fill="none" stroke="#1F2937" stroke-width="6" stroke-linecap="round" stroke-linejoin="round">
  <path d="M190,150 C130,90 60,110 55,170 C50,220 110,240 190,190 Z"/>
  <path d="M210,150 C270,90 340,110 345,170 C350,220 290,240 210,190 Z"/>
  <path d="M190,220 C150,260 100,270 90,310 C85,340 130,350 190,270 Z"/>
  <path d="M210,220 C250,260 300,270 310,310 C315,340 270,350 210,270 Z"/>
  <path d="M188,130 C186,110 188,90 188,290 C188,300 212,300 212,290 C212,90 214,110 212,130 Z"/>
  <circle cx="130" cy="165" r="10"/>
  <circle cx="270" cy="165" r="10"/>
  <path d="M190,130 C180,110 160,100 150,80"/>
  <path d="M210,130 C220,110 240,100 250,80"/>
  <circle cx="150" cy="80" r="4" fill="#1F2937" stroke="none"/>
  <circle cx="250" cy="80" r="4" fill="#1F2937" stroke="none"/>
</svg>
